<svg xmlns="http://www.w3.org/2000/svg" viewBox="0 0 256 256">
  <circle cx="128" cy="128" r="100" fill="#14b8a6"/>
  <path d="M128 38a90 90 0 0 0-90 90c0 49.7 40.3 90 90 90s90-40.3 90-90a90 90 0 0 0-90-90zm0 10c44.2 0 80 35.8 80 80 0 44.2-35.8 80-80 80s-80-35.8-80-80c0-44.2 35.8-80 80-80z" fill="#10b981" opacity="0.3"/>
  <path d="M128 58v140M68 128h120" stroke="#10b981" stroke-width="8" stroke-linecap="round" opacity="0.4"/>
  <ellipse cx="128" cy="128" rx="45" ry="90" fill="none" stroke="#10b981" stroke-width="8" opacity="0.4"/>
  <ellipse cx="128" cy="128" rx="90" ry="45" fill="none" stroke="#10b981" stroke-width="8" opacity="0.4"/>
  <path d="M70 160h116c8 0 14 6 14 14v20c0 8-6 14-14 14H70c-8 0-14-6-14-14v-20c0-8 6-14 14-14z" fill="#0d9488"/>
  <circle cx="90" cy="184" r="8" fill="#14b8a6"/>
  <circle cx="166" cy="184" r="8" fill="#14b8a6"/>
  <path d="M120 174h-8v8h-8v8h8v8h8v-8h8v-8h-8v-8z" fill="#10b981"/>
  <circle cx="154" cy="174" r="4" fill="#10b981"/>
  <circle cx="166" cy="174" r="4" fill="#10b981"/>
  <circle cx="154" cy="186" r="4" fill="#10b981"/>
  <circle cx="178" cy="174" r="4" fill="#10b981"/>
  <text x="85" y="192" font-family="Arial, sans-serif" font-size="14" font-weight="bold" fill="#065f46" opacity="0.6">G</text>
  <text x="161" y="192" font-family="Arial, sans-serif" font-size="14" font-weight="bold" fill="#065f46" opacity="0.6">G</text>
</svg>